<svg xmlns="http://www.w3.org/2000/svg" xmlns:xlink="http://www.w3.org/1999/xlink" width="1920" height="152" viewBox="0 0 1920 152">
  <defs>
    <clipPath id="clip-path">
      <rect id="Rectangle_614" data-name="Rectangle 614" width="1920" height="152" transform="translate(0 74)" fill="#4d1b84"/>
    </clipPath>
  </defs>
  <g id="Mask_Group_47" data-name="Mask Group 47" transform="translate(0 -74)" clip-path="url(#clip-path)">
    <g id="Group_337" data-name="Group 337" transform="translate(0 -732)" opacity="0.6">
      <rect id="Rectangle_601" data-name="Rectangle 601" width="71" height="160" rx="12" transform="translate(1345 816)" fill="#512991"/>
      <rect id="Rectangle_602" data-name="Rectangle 602" width="71" height="173" rx="12" transform="translate(1245 787)" fill="#512991"/>
      <path id="Path_394" data-name="Path 394" d="M0,685H559.639c37.368,0,73.205,12.1,99.629,33.629l68.71,55.991c23.255,18.951,54.8,29.6,87.684,29.6H1107.3c43.982,0,86.16,14.251,117.238,39.611L1395,982.921,0,978.031Z" transform="translate(0 9)" fill="#512991"/>
      <path id="Path_395" data-name="Path 395" d="M1920,802.569H1562.337a99.8,99.8,0,0,0-70.567,29.23l-39.692,39.692a125.617,125.617,0,0,1-88.827,36.794H1045.619a100.478,100.478,0,0,0-71.048,29.429l-52.429,52.428H1920Z" fill="#643faa"/>
      <rect id="Rectangle_603" data-name="Rectangle 603" width="95.294" height="41.471" rx="12" transform="translate(1663.353 736)" fill="#643faa"/>
      <rect id="Rectangle_604" data-name="Rectangle 604" width="118.235" height="21.176" rx="10.588" transform="translate(1651.882 759.823)" fill="#643faa"/>
      <path id="Path_396" data-name="Path 396" d="M0,879.25H56.487a97.8,97.8,0,0,0,69.16-28.647l31.771-31.771a108.254,108.254,0,0,1,76.547-31.707H352.758a157.509,157.509,0,0,1,111.375,46.133L617.8,986.921H0Z" transform="translate(0 3)" fill="#643faa"/>
      <rect id="Rectangle_605" data-name="Rectangle 605" width="87" height="241" rx="12" transform="translate(533 576)" fill="#512991"/>
      <rect id="Rectangle_606" data-name="Rectangle 606" width="71" height="173" rx="12" transform="translate(635 662)" fill="#512991"/>
      <rect id="Rectangle_607" data-name="Rectangle 607" width="71" height="173" rx="12" transform="translate(721 643)" fill="#512991"/>
      <rect id="Rectangle_608" data-name="Rectangle 608" width="53" height="23" rx="11.5" transform="translate(1430 685)" fill="#512991"/>
      <rect id="Rectangle_609" data-name="Rectangle 609" width="75" height="28" rx="12" transform="translate(1634 595)" fill="#512991"/>
      <rect id="Rectangle_610" data-name="Rectangle 610" width="76" height="24" rx="12" transform="translate(1280 585)" fill="#512991"/>
      <rect id="Rectangle_611" data-name="Rectangle 611" width="21" height="8" rx="4" transform="translate(1349 595)" fill="#512991"/>
      <rect id="Rectangle_612" data-name="Rectangle 612" width="15" height="8" rx="4" transform="translate(1478 694)" fill="#512991"/>
      <rect id="Rectangle_613" data-name="Rectangle 613" width="26" height="9" rx="4.5" transform="translate(1700 604)" fill="#512991"/>
    </g>
  </g>
</svg>
