<svg id="Grupo_262" data-name="Grupo 262" xmlns="http://www.w3.org/2000/svg" width="36.654" height="35.511" viewBox="0 0 36.654 35.511">
  <defs>
    <style>
      .cls-1 {
        fill: #4d1b84;
      }
    </style>
  </defs>
  <g id="Grupo_85" data-name="Grupo 85" transform="translate(0 0)">
    <g id="Zoom_In" data-name="Zoom In">
      <g id="Calendar">
        <g id="Grupo_84" data-name="Grupo 84">
          <g id="Grupo_83" data-name="Grupo 83">
            <g id="Grupo_82" data-name="Grupo 82">
              <g id="Grupo_81" data-name="Grupo 81">
                <g id="Grupo_80" data-name="Grupo 80">
                  <g id="Grupo_79" data-name="Grupo 79">
                    <g id="Grupo_78" data-name="Grupo 78">
                      <g id="Grupo_77" data-name="Grupo 77">
                        <g id="Play_-_Orange" data-name="Play - Orange">
                          <g id="Arrow_Right_-_Orange" data-name="Arrow Right - Orange">
                            <g id="Grupo_76" data-name="Grupo 76">
                              <path id="Trazado_98" data-name="Trazado 98" class="cls-1" d="M10.8,37.071V28.476h-.649a32.159,32.159,0,0,1-3.9-.132A7.33,7.33,0,0,1,.04,21.179Q-.03,15.037.04,8.89A7.4,7.4,0,0,1,7.586,1.56H29.049A7.387,7.387,0,0,1,36.581,8a11.757,11.757,0,0,1,.07,1.807q0,5.553,0,11.109a7.392,7.392,0,0,1-5.86,7.378,8.8,8.8,0,0,1-1.833.183H20.894a1.162,1.162,0,0,0-.7.264q-4.559,4.032-9.1,8.063A1.488,1.488,0,0,1,10.8,37.071ZM27.627,12.35a2.661,2.661,0,1,0,2.661,2.661,2.661,2.661,0,0,0-2.661-2.661Zm-18.358,0a2.661,2.661,0,1,0,2.657,2.643A2.661,2.661,0,0,0,9.268,12.35Zm9.192,0a2.661,2.661,0,1,0,2.654,2.643A2.661,2.661,0,0,0,18.461,12.35Z" transform="translate(-0.005 -1.56)"/>
                            </g>
                          </g>
                        </g>
                      </g>
                    </g>
                  </g>
                </g>
              </g>
            </g>
          </g>
        </g>
      </g>
    </g>
  </g>
</svg>
