<svg xmlns="http://www.w3.org/2000/svg" width="19.985" height="21.113" viewBox="0 0 19.985 21.113">
  <path id="Path_134" data-name="Path 134" d="M26.637,22.331a1.884,1.884,0,0,0,.015-.649c.906-4.823-2.764-10.268-3.712-14.421-.373-1.155-3.516-2.544-4.153-2.287-.578.234-1.749,1.843-1.392,2.33a.885.885,0,0,0,.226.207.616.616,0,0,0-.068.162.533.533,0,0,0,.35.666l1.8.45a.493.493,0,0,0,.523-.009l.961-.662a23.311,23.311,0,0,0,.221,11.442l0,0a5.633,5.633,0,0,0-3.791-1.36,5.774,5.774,0,0,0-3.476,1.1,4.279,4.279,0,0,0-3.057-1.267,4.016,4.016,0,1,0,0,8.023,4.326,4.326,0,0,0,2.121-.553,29.588,29.588,0,0,0,4.009.293c.107,0,.214,0,.321,0,.028,0,.055,0,.083,0,.177,0,.352-.008.524-.022,3.525-.158,6.7-1.172,7.4-1.95l.035-.02a.759.759,0,0,0,.454.155.908.908,0,0,0,.84-.964A1.033,1.033,0,0,0,26.637,22.331Z" transform="translate(-6.885 -4.944)" fill="#fe346e"/>
</svg>
