<svg xmlns="http://www.w3.org/2000/svg" width="19.786" height="18.883" viewBox="0 0 19.786 18.883">
  <path id="Path_137" data-name="Path 137" d="M23.833,13.64l-1.867-.271-3.1-.452a1.359,1.359,0,0,1-.911-.662L16.562,9.442,15.726,7.75c-.459-.93-1.211-.93-1.67,0l-.835,1.692-1.389,2.813a1.358,1.358,0,0,1-.911.662l-3.1.452L5.95,13.64c-1.027.149-1.259.864-.516,1.588l1.351,1.317,2.246,2.19a1.357,1.357,0,0,1,.348,1.071L8.849,22.9l-.319,1.86c-.175,1.023.433,1.465,1.351.982l1.67-.878,2.777-1.46a1.361,1.361,0,0,1,1.127,0l2.777,1.46,1.67.878c.918.483,1.526.041,1.351-.982l-.319-1.86-.53-3.092a1.356,1.356,0,0,1,.348-1.071L23,16.545l1.351-1.317C25.092,14.5,24.86,13.789,23.833,13.64Z" transform="translate(-4.999 -7.052)" fill="#fe346e"/>
</svg>
