<svg xmlns="http://www.w3.org/2000/svg" width="33.72" height="40.464" viewBox="0 0 33.72 40.464">
  <defs>
    <style>
      .cls-1 {
        fill: #4d1b84;
      }
    </style>
  </defs>
  <g id="Grupo_662" data-name="Grupo 662" transform="translate(0 0)">
    <path id="Trazado_414" data-name="Trazado 414" class="cls-1" d="M33.718,13.489a1.585,1.585,0,0,0-.438-1.18L21.444.507A1.517,1.517,0,0,0,20.231,0H1.686A1.686,1.686,0,0,0,0,1.687v37.09a1.686,1.686,0,0,0,1.686,1.686H32.032a1.686,1.686,0,0,0,1.686-1.686ZM6.744,17.4H20.231a1.248,1.248,0,0,1,1.281,1.248,1.281,1.281,0,0,1-1.281,1.281H6.744A1.281,1.281,0,0,1,5.5,18.648,1.248,1.248,0,0,1,6.744,17.4ZM16.859,33.416H6.744A1.281,1.281,0,0,1,5.5,32.135a1.248,1.248,0,0,1,1.248-1.248H16.859a1.248,1.248,0,0,1,1.281,1.248,1.281,1.281,0,0,1-1.281,1.281ZM23.6,26.673H6.744A1.281,1.281,0,0,1,5.5,25.391a1.248,1.248,0,0,1,1.248-1.248H23.6a1.248,1.248,0,0,1,1.281,1.248A1.281,1.281,0,0,1,23.6,26.673Zm6.373-13.184a.708.708,0,0,1-.674.438H20.534a.708.708,0,0,1-.708-.708v-8.5a.708.708,0,0,1,1.214-.506l8.767,8.463A.742.742,0,0,1,29.975,13.489Z" transform="translate(0 0.001)"/>
  </g>
</svg>
