<svg xmlns="http://www.w3.org/2000/svg" width="17.828" height="21" viewBox="0 0 17.828 21">
  <g id="Group_135" data-name="Group 135" transform="translate(-915 -763)">
    <path id="Path_135" data-name="Path 135" d="M10.566,17.166a.357.357,0,1,1,.175.692,5.213,5.213,0,0,1-3.683-.474h0c.592,4.635,5.491,6.532,6.8,6.6a2.118,2.118,0,0,0,1.7-.727V20.828a11.681,11.681,0,0,1-2.421-.995c-.492-.26-1.309.61-1.5.859a.357.357,0,1,1-.567-.435c.132-.168,1.305-1.637,2.4-1.07a11.378,11.378,0,0,0,2.086.9V17.009a5.4,5.4,0,0,1-1.74.51c-.681-.114-.535-1.244-.881-1.59-.185-.132-1.309.485-2.239.075-1.03-.449-1.722-2.332-1.783-2.546a.355.355,0,1,1,.67-.235,4.347,4.347,0,0,0,1.426,2.139c.8.357,1.851-.535,2.457.075.382.378.435,1.07.56,1.38a11.054,11.054,0,0,0,1.53-.581V9.653c-.756.374-2.1.546-2.378.763a8.478,8.478,0,0,0,.357,2.311.357.357,0,1,1-.688.178,10.676,10.676,0,0,1-.385-2.418L11.19,9.81a.357.357,0,1,1,.335-.631l1.248.667c.567-.428,2.763-.645,2.785-1.116V3.51A1.462,1.462,0,0,0,14.488,3a5.085,5.085,0,0,0-3.523,1.783,7.68,7.68,0,0,0-.916,1.262l.321.289a1.925,1.925,0,0,0,1.619.414,6.145,6.145,0,0,0,2.1-1.344.357.357,0,0,1,.5.51A6.773,6.773,0,0,1,12.17,7.436a2.73,2.73,0,0,1-2.5-.756,27.077,27.077,0,0,0-1.615,3.7l.713.05a3.884,3.884,0,0,1,2.853,1.49.357.357,0,0,1-.617.357,3.167,3.167,0,0,0-2.289-1.134l-.888-.064h0A19.326,19.326,0,0,0,7,16.446,4.169,4.169,0,0,0,10.566,17.166Z" transform="translate(908 760)" fill="#fe346e"/>
    <path id="Path_136" data-name="Path 136" d="M34.649,24c1.4-.068,6.857-2.218,6.857-7.531V16.3l-.585-.563c-.385-.086-1.38.506-2.107,1.148a.357.357,0,1,1-.474-.535c.321-.282,1.968-1.672,2.917-1.248a.734.734,0,0,1,.2.164,22.392,22.392,0,0,0-2.082-7.488,5.3,5.3,0,0,0-2.253,1.608.357.357,0,1,1-.506-.5,6.075,6.075,0,0,1,2.446-1.747,10.882,10.882,0,0,0-1.537-2.35A5.122,5.122,0,0,0,34,3a1.462,1.462,0,0,0-1.07.51V6.587a.357.357,0,0,1,.168.139,1.442,1.442,0,0,0,1.323.513A2.431,2.431,0,0,0,35.68,7a.357.357,0,0,1,.517.492,3.224,3.224,0,0,1-1.851.467,2.371,2.371,0,0,1-1.426-.414v3.544a11.171,11.171,0,0,0,1.426-1.07.356.356,0,1,1,.474.531,9.627,9.627,0,0,1-1.872,1.344V16.45a2.92,2.92,0,0,1,1.633-.574c.617.025,1.323,0,1.669,0,.221-.464.774-1.626.916-2.089A2.845,2.845,0,0,1,38.408,12.5a.357.357,0,1,1,.339.628c-.2.107-.777.5-.9.877a22.307,22.307,0,0,1-1.07,2.382.357.357,0,0,1-.307.2c-.043,0-1.07.036-1.94,0a2.965,2.965,0,0,0-1.583.756v3.687c.966-.021,1.783-1.116,2.5-1.391.874-.357,1.07.189,1.783.253.563.053.756-.143.763-.15a.357.357,0,1,1,.56.442,1.5,1.5,0,0,1-1.391.417c-.874-.078-.927-.506-1.451-.3s-1.519,1.426-2.767,1.426v1.519A2.107,2.107,0,0,0,34.649,24Zm3.23-12.972c-.389.406-1.223.528-1.672.735a1.07,1.07,0,0,0-.556,1.034c.046.806-.991,1.5-1.2,1.637a.357.357,0,0,1-.382-.6c.374-.239.884-.713.866-.991a1.783,1.783,0,0,1,.97-1.726,7.6,7.6,0,0,0,1.458-.578.356.356,0,0,1,.513.492ZM37.124,17.9a5.948,5.948,0,0,1-1.558,1.109,2.3,2.3,0,0,1-1.911-.332.357.357,0,1,1,.364-.61,1.812,1.812,0,0,0,1.273.282,5.434,5.434,0,0,0,1.319-.956.361.361,0,0,1,.513.506Z" transform="translate(891.322 760)" fill="#fe346e"/>
  </g>
</svg>
