<svg xmlns="http://www.w3.org/2000/svg" width="860" height="898.34" viewBox="0 0 860 898.34">
  <g id="Group_100" data-name="Group 100" transform="translate(-592.233 -339)">
    <path id="Path_118" data-name="Path 118" d="M1422.524,787.347c-381.028-209.3-830.1-23.251-830.1-23.251V480.079c0-74.331,70.52-134.59,157.511-134.59h553.673c72.6,0,130.9,51.184,128.94,113.2Z" transform="translate(1.15 39.059)" fill="#fe346e"/>
    <path id="Path_119" data-name="Path 119" d="M1312.175,1237.34H732.29c-77.223,0-140.058-62.828-140.058-140.057V479.05c0-77.222,62.834-140.05,140.058-140.05h579.885c77.222,0,140.058,62.828,140.058,140.05v618.233C1452.232,1174.512,1389.4,1237.34,1312.175,1237.34ZM732.29,396.115a83.028,83.028,0,0,0-82.936,82.934v618.233a83.034,83.034,0,0,0,82.936,82.942h579.885a83.033,83.033,0,0,0,82.934-82.942V479.05a83.027,83.027,0,0,0-82.934-82.934Z" transform="translate(0.001 0)" fill="#fe346e"/>
    <g id="Group_99" data-name="Group 99" transform="translate(881.682 575.075)">
      <path id="Path_120" data-name="Path 120" d="M702.757,536.344,645.493,413.767h114.53Z" transform="translate(-561.144 -125.106)" fill="#fe346e"/>
      <path id="Path_121" data-name="Path 121" d="M771.5,372.637,633.475,668.084h276.05Z" transform="translate(-633.475 -372.637)" fill="#ffbd69"/>
      <path id="Path_122" data-name="Path 122" d="M713.468,372.637,643.117,523.226h140.7Z" transform="translate(-575.443 -372.636)" fill="#381460"/>
    </g>
  </g>
</svg>
