<svg xmlns="http://www.w3.org/2000/svg" width="665.182" height="246" viewBox="0 0 665.182 246">
  <g id="patternHome" transform="translate(-26.074 0.45)">
    <line id="Línea_81" data-name="Línea 81" y2="77.191" transform="translate(656.166 -0.45)" fill="none" stroke="#2e43db" stroke-miterlimit="10" stroke-width="4"/>
    <circle id="Elipse_66" data-name="Elipse 66" cx="16.458" cy="16.458" r="16.458" transform="translate(639.501 76.525)" fill="none" stroke="#2e43db" stroke-miterlimit="10" stroke-width="4"/>
    <line id="Línea_82" data-name="Línea 82" y2="37.68" transform="translate(655.958 109.657)" fill="none" stroke="#2e43db" stroke-miterlimit="10" stroke-width="4"/>
    <path id="Trazado_285" data-name="Trazado 285" d="M1513.127,414.5h-24.2a11.131,11.131,0,0,1-11.1-11.1V387.16" transform="translate(-821.871 -219.737)" fill="none" stroke="#2e43db" stroke-miterlimit="10" stroke-width="4"/>
    <path id="Trazado_286" data-name="Trazado 286" d="M1308.894,92.982h-72.306c-15.462,0-28.108-12.356-28.108-27.458V-.45" transform="translate(-669.177)" fill="none" stroke="#2e43db" stroke-miterlimit="10" stroke-width="4"/>
    <circle id="Elipse_67" data-name="Elipse 67" cx="11.044" cy="11.044" r="11.044" transform="translate(645.131 146.686)" fill="none" stroke="#2e43db" stroke-miterlimit="10" stroke-width="4"/>
    <circle id="Elipse_68" data-name="Elipse 68" cx="1.49" cy="1.49" r="1.49" transform="translate(650.649 156.05)" fill="#ef863f"/>
    <circle id="Elipse_69" data-name="Elipse 69" cx="1.49" cy="1.49" r="1.49" transform="translate(654.62 156.05)" fill="#ef863f"/>
    <circle id="Elipse_70" data-name="Elipse 70" cx="1.49" cy="1.49" r="1.49" transform="translate(658.592 156.05)" fill="#ef863f"/>
    <path id="Trazado_287" data-name="Trazado 287" d="M1462.786,210.5h0a3.306,3.306,0,0,1-3.3-3.3v-8.138a3.306,3.306,0,0,1,3.3-3.3h0a3.306,3.306,0,0,1,3.3,3.3V207.2A3.309,3.309,0,0,1,1462.786,210.5Z" transform="translate(-811.474 -111.237)" fill="none" stroke="#20bca9" stroke-miterlimit="10" stroke-width="4"/>
    <path id="Trazado_288" data-name="Trazado 288" d="M1485.246,219.122h0a3.306,3.306,0,0,1-3.3-3.3v-1.55a3.306,3.306,0,0,1,3.3-3.3h0a3.306,3.306,0,0,1,3.3,3.3v1.55A3.306,3.306,0,0,1,1485.246,219.122Z" transform="translate(-824.207 -119.86)" fill="none" stroke="#20bca9" stroke-miterlimit="10" stroke-width="4"/>
    <circle id="Elipse_71" data-name="Elipse 71" cx="11.044" cy="11.044" r="11.044" transform="translate(562.946 115.815)" fill="none" stroke="#2e43db" stroke-miterlimit="10" stroke-width="4"/>
    <path id="Trazado_289" data-name="Trazado 289" d="M1382.07,286.579h0a7.6,7.6,0,0,1,7.579-7.579h0a7.6,7.6,0,0,1,7.579,7.579h0a7.6,7.6,0,0,1-7.579,7.579h0A7.6,7.6,0,0,1,1382.07,286.579Z" transform="translate(-767.585 -158.421)" fill="#20bca9"/>
    <path id="Trazado_290" data-name="Trazado 290" d="M1341.108,349.22a11.044,11.044,0,1,1-22.088,0" transform="translate(-731.842 -198.229)" fill="none" stroke="#ef863f" stroke-linecap="round" stroke-miterlimit="10" stroke-width="4"/>
    <circle id="Elipse_72" data-name="Elipse 72" cx="3.681" cy="3.681" r="3.681" transform="translate(570.465 123.329)" fill="#fe346e"/>
    <path id="Trazado_291" data-name="Trazado 291" d="M723.3,95.77v16.072a15.617,15.617,0,0,1-15.57,15.57h0a15.617,15.617,0,0,1-15.57-15.57V95.77A15.617,15.617,0,0,1,707.73,80.2h0A15.614,15.614,0,0,1,723.3,95.77Z" transform="translate(-376.474 -45.721)" fill="#20bca9"/>
    <circle id="Elipse_73" data-name="Elipse 73" cx="16.458" cy="16.458" r="16.458" transform="translate(346.293 84.32)" fill="none" stroke="#2e43db" stroke-miterlimit="10" stroke-width="4"/>
    <path id="Trazado_292" data-name="Trazado 292" d="M499.83,71.358A20.136,20.136,0,0,1,519.908,51.28h90.206a20.136,20.136,0,0,1,20.078,20.078v42.5" transform="translate(-267.442 -29.326)" fill="none" stroke="#2e43db" stroke-miterlimit="10" stroke-width="4"/>
    <circle id="Elipse_74" data-name="Elipse 74" cx="11.044" cy="11.044" r="11.044" transform="translate(221.344 41.444)" fill="none" stroke="#2e43db" stroke-miterlimit="10" stroke-width="4"/>
    <path id="Trazado_293" data-name="Trazado 293" d="M558.731,151.167v52.925a20.329,20.329,0,0,1-20.269,20.269H520.1a20.329,20.329,0,0,1-20.269-20.269V151.08" transform="translate(-267.442 -85.903)" fill="none" stroke="#2e43db" stroke-miterlimit="10" stroke-width="4"/>
    <path id="Trazado_294" data-name="Trazado 294" d="M64.889,214.53H45.148A17.069,17.069,0,0,1,28.08,197.462V176.5a20,20,0,0,1,20-20H81.446a16.794,16.794,0,0,0,16.8-16.8V120.011a13.321,13.321,0,0,1,13.322-13.322H168.82a22.831,22.831,0,0,0,22.833-22.833V2.55" transform="translate(-0.006 -1.701)" fill="none" stroke="#2e43db" stroke-miterlimit="10" stroke-width="4"/>
    <path id="Trazado_295" data-name="Trazado 295" d="M718.584,271.28v42.227h0a12.46,12.46,0,0,1-12.46,12.46H672.2a16.454,16.454,0,0,0-16.453,16.453v57.173" transform="translate(-355.833 -154.044)" fill="none" stroke="#2e43db" stroke-miterlimit="10" stroke-width="4"/>
    <circle id="Elipse_75" data-name="Elipse 75" cx="11.044" cy="11.044" r="11.044" transform="translate(280.462 41.444)" fill="none" stroke="#2e43db" stroke-miterlimit="10" stroke-width="4"/>
    <path id="Trazado_296" data-name="Trazado 296" d="M500.375,115.909l-5.557-3.209a.5.5,0,0,0-.758.437v6.419a.5.5,0,0,0,.758.437l5.557-3.209A.508.508,0,0,0,500.375,115.909Z" transform="translate(-264.171 -64.106)" fill="none" stroke="#ef863f" stroke-linecap="round" stroke-miterlimit="10" stroke-width="4"/>
    <line id="Línea_83" data-name="Línea 83" x2="12.993" transform="translate(356.038 95.797)" fill="none" stroke="#ef863f" stroke-linecap="round" stroke-miterlimit="10" stroke-width="4"/>
    <line id="Línea_84" data-name="Línea 84" x2="7.796" transform="translate(356.038 100.995)" fill="none" stroke="#ef863f" stroke-linecap="round" stroke-miterlimit="10" stroke-width="4"/>
    <line id="Línea_85" data-name="Línea 85" x2="11.694" transform="translate(356.038 105.759)" fill="none" stroke="#ef863f" stroke-linecap="round" stroke-miterlimit="10" stroke-width="4"/>
    <circle id="Elipse_76" data-name="Elipse 76" cx="3.681" cy="3.681" r="3.681" transform="translate(287.608 48.59)" fill="#20bca9"/>
    <path id="Trazado_297" data-name="Trazado 297" d="M560.215,316.186h-3.9a5.212,5.212,0,0,1-5.2-5.2V295.4a5.212,5.212,0,0,1,5.2-5.2h3.9a5.212,5.212,0,0,1,5.2,5.2v15.592A5.212,5.212,0,0,1,560.215,316.186Z" transform="translate(-296.518 -164.77)" fill="#fe346e"/>
    <path id="Trazado_298" data-name="Trazado 298" d="M839.07,233h82.505a14.51,14.51,0,0,1,14.509,14.509v50.685a29.306,29.306,0,0,0,29.221,29.221h39.438a29.306,29.306,0,0,0,29.221-29.221V270.246" transform="translate(-459.757 -132.343)" fill="none" stroke="#2e43db" stroke-miterlimit="10" stroke-width="4"/>
    <path id="Trazado_299" data-name="Trazado 299" d="M1013.7,179.2h0a7.6,7.6,0,0,1,7.579,7.579V206.7a7.6,7.6,0,0,1-7.579,7.579h0a7.6,7.6,0,0,1-7.579-7.579V186.779A7.6,7.6,0,0,1,1013.7,179.2Z" transform="translate(-554.458 -101.844)" fill="#fe346e"/>
    <path id="Trazado_300" data-name="Trazado 300" d="M1033.07,137.579h0a7.6,7.6,0,0,1,7.579-7.579h0a7.6,7.6,0,0,1,7.579,7.579h0a7.6,7.6,0,0,1-7.579,7.579h0A7.6,7.6,0,0,1,1033.07,137.579Z" transform="translate(-569.736 -73.952)" fill="#20bca9"/>
    <path id="Trazado_301" data-name="Trazado 301" d="M48.859,379.158H33.267a5.212,5.212,0,0,1-5.2-5.2V369.2a5.212,5.212,0,0,1,5.2-5.2H48.859a5.212,5.212,0,0,1,5.2,5.2v4.764A5.212,5.212,0,0,1,48.859,379.158Z" transform="translate(0 -206.607)" fill="#20bca9"/>
    <g id="Grupo_229" data-name="Grupo 229" transform="translate(64.883 196.372)">
      <circle id="Elipse_77" data-name="Elipse 77" cx="16.458" cy="16.458" r="16.458" transform="translate(0)" fill="none" stroke="#2e43db" stroke-miterlimit="10" stroke-width="4"/>
      <line id="Línea_86" data-name="Línea 86" x2="12.993" transform="translate(9.745 11.477)" fill="none" stroke="#ef863f" stroke-linecap="round" stroke-miterlimit="10" stroke-width="4"/>
      <line id="Línea_87" data-name="Línea 87" x2="7.796" transform="translate(9.745 16.674)" fill="none" stroke="#ef863f" stroke-linecap="round" stroke-miterlimit="10" stroke-width="4"/>
      <line id="Línea_88" data-name="Línea 88" x2="11.694" transform="translate(9.745 21.438)" fill="none" stroke="#ef863f" stroke-linecap="round" stroke-miterlimit="10" stroke-width="4"/>
    </g>
    <circle id="Elipse_78" data-name="Elipse 78" cx="16.458" cy="16.458" r="16.458" transform="translate(155.531 196.289)" fill="none" stroke="#2e43db" stroke-miterlimit="10" stroke-width="4"/>
    <path id="Trazado_302" data-name="Trazado 302" d="M345.326,487.03h0a3.306,3.306,0,0,1-3.3-3.3V475.6a3.306,3.306,0,0,1,3.3-3.3h0a3.306,3.306,0,0,1,3.3,3.3v8.138A3.309,3.309,0,0,1,345.326,487.03Z" transform="translate(-177.984 -268.003)" fill="none" stroke="#20bca9" stroke-miterlimit="10" stroke-width="4"/>
    <path id="Trazado_303" data-name="Trazado 303" d="M367.786,495.652h0a3.306,3.306,0,0,1-3.3-3.3v-1.55a3.306,3.306,0,0,1,3.3-3.3h0a3.306,3.306,0,0,1,3.3,3.3v1.55A3.3,3.3,0,0,1,367.786,495.652Z" transform="translate(-190.717 -276.625)" fill="none" stroke="#20bca9" stroke-miterlimit="10" stroke-width="4"/>
    <line id="Línea_89" data-name="Línea 89" x2="57.771" transform="translate(97.799 212.829)" fill="none" stroke="#2e43db" stroke-miterlimit="10" stroke-width="4"/>
    <path id="Trazado_304" data-name="Trazado 304" d="M1286.469,114.942h-22.105a14.325,14.325,0,0,1-14.283-14.284V83.5a14.325,14.325,0,0,1,14.283-14.284h22.105A14.325,14.325,0,0,1,1300.752,83.5v17.155A14.33,14.33,0,0,1,1286.469,114.942Z" transform="translate(-692.76 -39.496)" fill="#ef52ca"/>
    <path id="Trazado_305" data-name="Trazado 305" d="M866,384.884h-1.732a5.212,5.212,0,0,1-5.2-5.2V360.2a5.212,5.212,0,0,1,5.2-5.2H866a5.212,5.212,0,0,1,5.2,5.2v19.489A5.212,5.212,0,0,1,866,384.884Z" transform="translate(-471.095 -201.505)" fill="#fe346e"/>
    <path id="Trazado_306" data-name="Trazado 306" d="M933,384.884h-1.732a5.212,5.212,0,0,1-5.2-5.2V360.2a5.212,5.212,0,0,1,5.2-5.2H933a5.212,5.212,0,0,1,5.2,5.2v19.489A5.212,5.212,0,0,1,933,384.884Z" transform="translate(-509.078 -201.505)" fill="#fe346e"/>
    <path id="Trazado_307" data-name="Trazado 307" d="M847.158,468h-5.682a16.406,16.406,0,0,0-16.406,16.406v26.7" transform="translate(-451.821 -265.565)" fill="none" stroke="#2e43db" stroke-miterlimit="10" stroke-width="4"/>
    <path id="Trazado_308" data-name="Trazado 308" d="M216.42,287.755v-15.4a9.451,9.451,0,0,1,9.424-9.424h13.348a9.451,9.451,0,0,1,9.424,9.424v15.4a9.451,9.451,0,0,1-9.424,9.424H225.844A9.456,9.456,0,0,1,216.42,287.755Z" transform="translate(-106.776 -149.311)" fill="#ef52ca"/>
    <circle id="Elipse_79" data-name="Elipse 79" cx="11.044" cy="11.044" r="11.044" transform="translate(396.204 189.875)" fill="none" stroke="#2e43db" stroke-miterlimit="10" stroke-width="4"/>
    <circle id="Elipse_80" data-name="Elipse 80" cx="3.681" cy="3.681" r="3.681" transform="translate(403.363 197.199)" fill="#fe346e"/>
    <path id="Trazado_309" data-name="Trazado 309" d="M398.07,492h16.471a15.579,15.579,0,0,1,15.579,15.579v17.142" transform="translate(-209.754 -279.171)" fill="none" stroke="#2e43db" stroke-miterlimit="10" stroke-width="4"/>
    <path id="Trazado_310" data-name="Trazado 310" d="M946.841,2.55v10.8A20.382,20.382,0,0,1,926.46,33.733H888.65a18.9,18.9,0,0,1-18.9-18.9V2.55" transform="translate(-477.15 -1.701)" fill="none" stroke="#2e43db" stroke-miterlimit="10" stroke-width="4"/>
    <path id="Trazado_311" data-name="Trazado 311" d="M1280.75,534.67v-4.738a20.382,20.382,0,0,1,20.382-20.382h37.81a18.9,18.9,0,0,1,18.9,18.9v6.219" transform="translate(-710.146 -289.12)" fill="none" stroke="#2e43db" stroke-miterlimit="10" stroke-width="4"/>
  </g>
</svg>
