<svg xmlns="http://www.w3.org/2000/svg" width="51.108" height="82.971" viewBox="0 0 51.108 82.971">
  <g id="Group_325" data-name="Group 325" transform="translate(-15 -6)">
    <path id="Path_387" data-name="Path 387" d="M40,39.935v2.494a4.51,4.51,0,1,0,9.019,0V41.4a13.417,13.417,0,0,0-6.533-3.235A18.022,18.022,0,0,1,40,39.935Zm3.006.991h3.006v3.006H43.006Z" transform="translate(12.579 16.183)" fill="#fe346e"/>
    <path id="Path_388" data-name="Path 388" d="M32.173,41.364a18.2,18.2,0,0,1-6.163-1.088,9.007,9.007,0,0,0,18,0,18.2,18.2,0,0,1-6.163,1.088Z" transform="translate(5.54 17.247)" fill="#fe346e"/>
    <path id="Path_389" data-name="Path 389" d="M35.2,55.6h5.682a15.2,15.2,0,0,0,15.2-15.2V24.038a18.038,18.038,0,0,0-36.076,0v16.37A15.2,15.2,0,0,0,35.2,55.6ZM30.522,36.064a1.5,1.5,0,1,1,1.5-1.5A1.5,1.5,0,0,1,30.522,36.064ZM39.541,52.6H36.535a1.5,1.5,0,1,1,0-3.006h3.006a1.5,1.5,0,1,1,0,3.006Zm6.013-16.535a1.5,1.5,0,1,1,1.5-1.5A1.5,1.5,0,0,1,45.554,36.064Zm-9.019,1.5h1.5V31.554a3.006,3.006,0,0,1,3.006-3.006H48.56a1.5,1.5,0,0,1,0,3.006H41.044v6.013a3.006,3.006,0,0,1-3.006,3.006h-1.5a1.5,1.5,0,1,1,0-3.006Zm-9.019-9.019h6.013a1.5,1.5,0,1,1,0,3.006H27.516a1.5,1.5,0,0,1,0-3.006Z" transform="translate(2.516 0)" fill="#fe346e"/>
    <path id="Path_390" data-name="Path 390" d="M49.006,25.006A3.006,3.006,0,0,0,46,22v6.013A3.006,3.006,0,0,0,49.006,25.006Z" transform="translate(15.599 8.051)" fill="#fe346e"/>
    <path id="Path_391" data-name="Path 391" d="M18,41.4v1.033a4.51,4.51,0,1,0,9.019,0V39.935a18.024,18.024,0,0,1-2.486-1.774A13.417,13.417,0,0,0,18,41.4Zm6.013,2.536H21.006V40.925h3.006Z" transform="translate(1.51 16.183)" fill="#fe346e"/>
    <path id="Path_392" data-name="Path 392" d="M64.24,42.459a7.463,7.463,0,0,1-13.219,2.2,12.037,12.037,0,0,1-8.963,6.022V58.3H39.051v-7.62a12.037,12.037,0,0,1-8.963-6.022,7.463,7.463,0,0,1-13.219-2.2A13.438,13.438,0,0,0,15,49.285V61.31h6.013V55.3h3.006V70.329h33.07V55.3H60.1V61.31h6.013V49.285A13.438,13.438,0,0,0,64.24,42.459Z" transform="translate(0 18.345)" fill="#fe346e"/>
    <rect id="Rectangle_594" data-name="Rectangle 594" width="6" height="6" transform="translate(60 82.971)" fill="#fe346e"/>
    <path id="Path_393" data-name="Path 393" d="M19.006,28.013V22a3.006,3.006,0,1,0,0,6.013Z" transform="translate(0.503 8.051)" fill="#fe346e"/>
    <rect id="Rectangle_595" data-name="Rectangle 595" width="6" height="6" transform="translate(15 82.971)" fill="#fe346e"/>
  </g>
</svg>
