<svg xmlns="http://www.w3.org/2000/svg" width="19.455" height="18.872" viewBox="0 0 19.455 18.872">
  <path id="Path_139" data-name="Path 139" d="M29.917,21.342a1.369,1.369,0,0,0,.629-.165,28.569,28.569,0,0,0,6.817-5.692L37.329,17.8a2.329,2.329,0,0,0,4.335,1.224l.033-.066a2.334,2.334,0,0,0,2.846-3.508L43.484,14l1.952.3a2.323,2.323,0,0,0,1.787-4.136l-.066-.033A2.337,2.337,0,0,0,44.08,6.815L41.8,8.072l.893-2.25a2.335,2.335,0,0,0-3.64-2.68l-.066.033a2.336,2.336,0,0,0-3.9,2.283l.662,2.35-1.588-.761a2.328,2.328,0,0,0-2.879,3.475l.033.066h0a2.331,2.331,0,0,0,2.019,4.037l1.986-.43a27.721,27.721,0,0,1-6.056,4.964,1.226,1.226,0,0,0-.4,1.655A1.382,1.382,0,0,0,29.917,21.342Z" transform="translate(-28.688 -2.469)" fill="#fe346e"/>
</svg>
