<svg xmlns="http://www.w3.org/2000/svg" width="70.485" height="86.967" viewBox="0 0 70.485 86.967">
  <g id="Grupo_414" data-name="Grupo 414" transform="matrix(0.719, -0.695, 0.695, 0.719, -16.162, 49.005)">
    <path id="Trazado_188" data-name="Trazado 188" d="M65.656,1A67.228,67.228,0,0,0,47.9,3.867,26.962,26.962,0,0,0,63.891,19.858,68.672,68.672,0,0,0,66.758,2.1,1.105,1.105,0,0,0,65.656,1Z" transform="translate(4.823)" fill="#fe346e"/>
    <path id="Trazado_189" data-name="Trazado 189" d="M49.034,4.2A47.2,47.2,0,0,0,30.285,15.339c-8.6,8.6-12.241,20.4-13.785,29.225a27.487,27.487,0,0,1,10.587-4.632,3,3,0,0,1,2.757.772,3.03,3.03,0,0,1,.882,2.757,28.2,28.2,0,0,1-4.742,10.587c8.933-1.434,20.623-5.073,29.225-13.785A46.877,46.877,0,0,0,66.348,21.4,28.464,28.464,0,0,1,49.034,4.2ZM50.8,31.44a8.187,8.187,0,0,1-11.58,0,8.054,8.054,0,0,1,0-11.469,8.187,8.187,0,0,1,11.58,0A8.054,8.054,0,0,1,50.8,31.44Z" transform="translate(1.594 0.329)" fill="#fe346e"/>
    <path id="Trazado_190" data-name="Trazado 190" d="M38.762,19.962a5.927,5.927,0,1,0,8.382,0A5.924,5.924,0,0,0,38.762,19.962Z" transform="translate(3.705 1.771)" fill="#fe346e"/>
    <path id="Trazado_191" data-name="Trazado 191" d="M16.219,40.866a63.508,63.508,0,0,1,6.617-18.858,14.063,14.063,0,0,0-11.469,4.08L1.331,36.124a1.066,1.066,0,0,0,0,1.544A14.159,14.159,0,0,0,16.219,40.866Z" transform="translate(0 2.152)" fill="#fe346e"/>
    <path id="Trazado_192" data-name="Trazado 192" d="M26.985,51.807a13.989,13.989,0,0,0,3.2,14.888,1.066,1.066,0,0,0,1.544,0L41.763,56.659A14.581,14.581,0,0,0,45.844,45.3,63.024,63.024,0,0,1,26.985,51.807Z" transform="translate(2.578 4.556)" fill="#fe346e"/>
    <path id="Trazado_193" data-name="Trazado 193" d="M29.051,38.825a.731.731,0,0,0-.772-.221,26.124,26.124,0,0,0-12.462,6.507A26.85,26.85,0,0,0,9.2,57.573a.93.93,0,0,0,.221.772.731.731,0,0,0,.772.221,26.036,26.036,0,0,0,12.462-6.617,25.031,25.031,0,0,0,6.507-12.462C29.382,39.266,29.272,39.045,29.051,38.825Z" transform="translate(0.843 3.863)" fill="#fe346e"/>
  </g>
</svg>
