<svg xmlns="http://www.w3.org/2000/svg" width="53.333" height="64" viewBox="0 0 53.333 64">
  <g id="Grupo_662" data-name="Grupo 662" transform="translate(2369.46 -115.3)">
    <path id="Trazado_414" data-name="Trazado 414" d="M53.33,21.335a2.506,2.506,0,0,0-.693-1.867L33.918.8A2.4,2.4,0,0,0,32,0H2.666A2.666,2.666,0,0,0,0,2.669V61.333A2.667,2.667,0,0,0,2.666,64h48a2.667,2.667,0,0,0,2.666-2.667ZM10.666,27.521H32a1.973,1.973,0,0,1,2.027,1.973A2.027,2.027,0,0,1,32,31.521H10.666a2.027,2.027,0,0,1-1.973-2.027,1.973,1.973,0,0,1,1.973-1.973Zm16,25.332h-16a2.027,2.027,0,0,1-1.973-2.027,1.973,1.973,0,0,1,1.973-1.973h16a1.973,1.973,0,0,1,2.027,1.973,2.027,2.027,0,0,1-2.027,2.027ZM37.331,42.187H10.666a2.027,2.027,0,0,1-1.973-2.027,1.973,1.973,0,0,1,1.973-1.973H37.331a1.973,1.973,0,0,1,2.027,1.973,2.027,2.027,0,0,1-2.027,2.027ZM47.41,21.335a1.12,1.12,0,0,1-1.067.693H32.478a1.12,1.12,0,0,1-1.12-1.12V7.469a1.12,1.12,0,0,1,1.92-.8L47.143,20.055A1.173,1.173,0,0,1,47.41,21.335Z" transform="translate(-2369.46 115.301)" fill="#fe346e"/>
  </g>
</svg>
