<svg xmlns="http://www.w3.org/2000/svg" width="18" height="12.154" viewBox="0 0 18 12.154">
  <g id="noun_Planet_2145589" transform="translate(-5 -19.631)">
    <path id="Trazado_471" data-name="Trazado 471" d="M7.334,29.4c-1.724,1.516-2.627,2.817-2.249,3.471.426.737,2.374.478,4.984-.52a6.064,6.064,0,0,0,9.9-5.717c2.17-1.761,3.369-3.32,2.943-4.057-.378-.655-1.957-.523-4.133.213a6.893,6.893,0,0,1,.751.86c.642-.109,1.073-.058,1.211.181.438.758-2.227,3.116-5.951,5.266s-7.1,3.279-7.536,2.52c-.138-.239.033-.638.448-1.138a6.829,6.829,0,0,1-.37-1.079Z" transform="translate(0 -2.015)" fill="#8d8d8d"/>
    <path id="Trazado_472" data-name="Trazado 472" d="M19.633,25.7a6.044,6.044,0,0,0,.9,3.178,25.01,25.01,0,0,0,5.567-2.5,25.362,25.362,0,0,0,4.949-3.573A6.074,6.074,0,0,0,19.633,25.7Z" transform="translate(-11.706)" fill="#8d8d8d"/>
  </g>
</svg>
